# xmcd
#
# Track frame offsets: 
#        150
#        18610
#        37286
#        55009
#        71514
#        90490
#        106057
#        120353
#        128302
#        145698
#
# Disc length: 2167 seconds
#
# Revision: 5
# Processed by: cddbd v1.5.2PL0 Copyright (c) Steve Scherf et al.
# Submitted via: ExactAudioCopyFreeDBPlugin 1.0
#
DISCID=7908750a
DTITLE=Various Artist - みなみけ きゃらくたーそんぐべすとあるばむ [Disc 1]
DYEAR=2009
DGENRE=Anime
TTITLE0=南春香 (佐藤利奈), マキ (高木礼子), アツコ (小野涼子) - 青春グラフィティ
TTITLE1=南夏奈 (井上麻里奈), ケイコ (後藤沙緒里), リコ (高梁碧) - ナンダカンダDE
TTITLE2=南千秋 (茅原実里), 内田ユカ (喜多村英梨), 吉野 (豊崎愛生) - おおきなユメ
TTITLE3=長男 (川田紳司), 南ナツキ (吉野裕行), 南アキラ (葉山達也) - 妹らしくあれ ～もうひとつのみなみけ～
TTITLE4=タケルおじさん (浅沼晋太郎) - down and UP! and DOWN↓
TTITLE5=マコト (森永理科) and シュウイチ (大原桃子) - まかせてティーチャー
TTITLE6=速水 (千葉紗子) - オモシロックオン!
TTITLE7=保坂 (小野大輔) and 南千秋 (茅原実里) - カレーのうた
TTITLE8=みなみけ三姉妹 (佐藤利奈, 井上麻里奈, 茅原実里) - 春夏秋冬フェスティバル♪
TTITLE9=みなみけ三姉妹 (佐藤利奈, 井上麻里奈, 茅原実里) - ありがとうサンキュ
EXTD=YEAR: 2009
EXTT0=
EXTT1=
EXTT2=
EXTT3=
EXTT4=
EXTT5=
EXTT6=
EXTT7=
EXTT8=
EXTT9=
PLAYORDER=
